<svg width="54" height="12" viewBox="0 0 54 12" fill="none" xmlns="http://www.w3.org/2000/svg">
<path d="M1.49572 11.5996L3.03172 8.27161H9.01572L10.5517 11.5996H11.8157L6.66372 0.399609H5.95972L0.791719 11.5996H1.49572ZM3.25572 7.77561L6.00772 1.80761L8.77572 7.77561H3.25572ZM13.8576 11.5996H15.0256V7.21561C15.0256 6.47961 15.2656 5.88761 15.7776 5.42361C16.2736 4.95961 16.8656 4.71961 17.5696 4.71961C17.7616 4.71961 17.9376 4.75161 18.0816 4.81561V3.82361C17.3776 3.82361 16.7376 3.98361 16.1936 4.30361C15.6496 4.62361 15.2336 5.05561 14.9616 5.59961L14.6416 4.07961C14.5616 3.98361 14.4656 3.91961 14.3536 3.91961H13.8576V11.5996ZM19.3342 3.91961V4.41561H20.9502V9.37561C20.9502 10.0636 21.1902 10.6236 21.6702 11.0556C22.1502 11.4876 22.7582 11.6956 23.4942 11.6956C23.8462 11.6956 24.1662 11.6476 24.4542 11.5356C24.7422 11.4236 24.9182 11.3276 24.9982 11.2636C25.0782 11.1996 25.1422 11.1356 25.1742 11.0876L24.9022 10.7516L24.7902 10.8476C24.7262 10.9116 24.5982 10.9756 24.4222 11.0396C24.2302 11.1036 24.0382 11.1356 23.8302 11.1356C23.3342 11.1356 22.9182 10.9756 22.5982 10.6236C22.2622 10.2876 22.1022 9.83961 22.1022 9.29561V4.41561H24.8222V3.91961H22.1022V1.95161H21.7182L20.9502 2.59161V3.91961H19.3342ZM27.3357 11.5996H28.5037V3.91961H27.3357V11.5996ZM27.1277 1.24761C27.1277 1.48761 27.1917 1.67961 27.3357 1.82361C27.4797 1.96761 27.6717 2.03161 27.9277 2.03161C28.1517 2.03161 28.3437 1.96761 28.4877 1.82361C28.6317 1.67961 28.7117 1.48761 28.7117 1.24761C28.7117 1.02361 28.6317 0.831609 28.4877 0.671609C28.3437 0.527609 28.1517 0.447609 27.9277 0.447609C27.6877 0.447609 27.4957 0.527609 27.3517 0.671609C27.1917 0.815609 27.1277 1.00761 27.1277 1.24761ZM36.5608 9.80761C36.5608 10.2556 36.3528 10.6076 35.9528 10.8636C35.5368 11.1196 35.0088 11.2476 34.3528 11.2476C33.6328 11.2476 33.0568 11.0876 32.6408 10.7676C32.2248 10.4476 32.0168 10.0156 32.0168 9.47161H30.8968C30.8968 10.1436 31.2008 10.6876 31.8248 11.0876C32.4328 11.5036 33.2648 11.6956 34.3048 11.6956C35.3128 11.6956 36.1128 11.5036 36.7208 11.1196C37.3288 10.7356 37.6328 10.2076 37.6328 9.53561C37.6328 8.92761 37.3448 8.44761 36.7688 8.07961C36.4488 7.88761 35.7928 7.61561 34.8008 7.29561C34.7048 7.27961 34.5928 7.24761 34.4328 7.18361C34.0808 7.08761 33.8408 7.00761 33.6808 6.95961C33.5208 6.91161 33.3288 6.83161 33.0888 6.71961C32.8328 6.62361 32.6568 6.52761 32.5608 6.43161C32.4488 6.33561 32.3528 6.22361 32.2728 6.07961C32.1768 5.93561 32.1448 5.77561 32.1448 5.59961C32.1448 5.21561 32.3208 4.89561 32.6888 4.63961C33.0408 4.39961 33.5208 4.27161 34.1288 4.27161C34.7848 4.27161 35.3128 4.44761 35.7128 4.76761C36.0968 5.08761 36.3048 5.51961 36.3048 6.03161H37.4248C37.4248 5.35961 37.1208 4.83161 36.5448 4.43161C35.9528 4.03161 35.1688 3.82361 34.1768 3.82361C33.2328 3.82361 32.4808 4.01561 31.9048 4.38361C31.3288 4.75161 31.0568 5.24761 31.0568 5.85561C31.0568 6.47961 31.3768 6.97561 32.0488 7.34361C32.3688 7.53561 33.0888 7.79161 34.2088 8.14361C34.2408 8.15961 34.3208 8.17561 34.4168 8.20761C34.7368 8.30361 34.9448 8.38361 35.0728 8.41561C35.2008 8.44761 35.3768 8.52761 35.6328 8.62361C35.8728 8.73561 36.0488 8.83161 36.1448 8.92761C36.2408 9.02361 36.3208 9.15161 36.4168 9.31161C36.5128 9.47161 36.5608 9.63161 36.5608 9.80761ZM38.9655 3.91961V4.41561H40.5815V9.37561C40.5815 10.0636 40.8215 10.6236 41.3015 11.0556C41.7815 11.4876 42.3895 11.6956 43.1255 11.6956C43.4775 11.6956 43.7975 11.6476 44.0855 11.5356C44.3735 11.4236 44.5495 11.3276 44.6295 11.2636C44.7095 11.1996 44.7735 11.1356 44.8055 11.0876L44.5335 10.7516L44.4215 10.8476C44.3575 10.9116 44.2295 10.9756 44.0535 11.0396C43.8615 11.1036 43.6695 11.1356 43.4615 11.1356C42.9655 11.1356 42.5495 10.9756 42.2295 10.6236C41.8935 10.2876 41.7335 9.83961 41.7335 9.29561V4.41561H44.4535V3.91961H41.7335V1.95161H41.3495L40.5815 2.59161V3.91961H38.9655ZM51.9921 9.80761C51.9921 10.2556 51.7841 10.6076 51.3841 10.8636C50.9681 11.1196 50.4401 11.2476 49.7841 11.2476C49.0641 11.2476 48.4881 11.0876 48.0721 10.7676C47.6561 10.4476 47.4481 10.0156 47.4481 9.47161H46.3281C46.3281 10.1436 46.6321 10.6876 47.2561 11.0876C47.8641 11.5036 48.6961 11.6956 49.7361 11.6956C50.7441 11.6956 51.5441 11.5036 52.1521 11.1196C52.7601 10.7356 53.0641 10.2076 53.0641 9.53561C53.0641 8.92761 52.7761 8.44761 52.2001 8.07961C51.8801 7.88761 51.2241 7.61561 50.2321 7.29561C50.1361 7.27961 50.0241 7.24761 49.8641 7.18361C49.5121 7.08761 49.2721 7.00761 49.1121 6.95961C48.9521 6.91161 48.7601 6.83161 48.5201 6.71961C48.2641 6.62361 48.0881 6.52761 47.9921 6.43161C47.8801 6.33561 47.7841 6.22361 47.7041 6.07961C47.6081 5.93561 47.5761 5.77561 47.5761 5.59961C47.5761 5.21561 47.7521 4.89561 48.1201 4.63961C48.4721 4.39961 48.9521 4.27161 49.5601 4.27161C50.2161 4.27161 50.7441 4.44761 51.1441 4.76761C51.5281 5.08761 51.7361 5.51961 51.7361 6.03161H52.8561C52.8561 5.35961 52.5521 4.83161 51.9761 4.43161C51.3841 4.03161 50.6001 3.82361 49.6081 3.82361C48.6641 3.82361 47.9121 4.01561 47.3361 4.38361C46.7601 4.75161 46.4881 5.24761 46.4881 5.85561C46.4881 6.47961 46.8081 6.97561 47.4801 7.34361C47.8001 7.53561 48.5201 7.79161 49.6401 8.14361C49.6721 8.15961 49.7521 8.17561 49.8481 8.20761C50.1681 8.30361 50.3761 8.38361 50.5041 8.41561C50.6321 8.44761 50.8081 8.52761 51.0641 8.62361C51.3041 8.73561 51.4801 8.83161 51.5761 8.92761C51.6721 9.02361 51.7521 9.15161 51.8481 9.31161C51.9441 9.47161 51.9921 9.63161 51.9921 9.80761Z" fill="white"/>
</svg>
