<svg width="63" height="13" viewBox="0 0 63 13" fill="none" xmlns="http://www.w3.org/2000/svg">
<path d="M1.59243 12.5996L3.12843 9.27161H9.11243L10.6484 12.5996H11.9124L6.76043 1.39961H6.05643L0.88843 12.5996H1.59243ZM3.35243 8.77561L6.10443 2.80761L8.87243 8.77561H3.35243ZM13.9543 12.5996H15.1223V8.21561C15.1223 7.47961 15.3623 6.88761 15.8743 6.42361C16.3703 5.95961 16.9623 5.71961 17.6663 5.71961C17.8583 5.71961 18.0343 5.75161 18.1783 5.81561V4.82361C17.4743 4.82361 16.8343 4.98361 16.2903 5.30361C15.7463 5.62361 15.3303 6.05561 15.0583 6.59961L14.7383 5.07961C14.6583 4.98361 14.5623 4.91961 14.4503 4.91961H13.9543V12.5996ZM19.4309 4.91961V5.41561H21.0469V10.3756C21.0469 11.0636 21.2869 11.6236 21.7669 12.0556C22.2469 12.4876 22.8549 12.6956 23.5909 12.6956C23.9429 12.6956 24.2629 12.6476 24.5509 12.5356C24.8389 12.4236 25.0149 12.3276 25.0949 12.2636C25.1749 12.1996 25.2389 12.1356 25.2709 12.0876L24.9989 11.7516L24.8869 11.8476C24.8229 11.9116 24.6949 11.9756 24.5189 12.0396C24.3269 12.1036 24.1349 12.1356 23.9269 12.1356C23.4309 12.1356 23.0149 11.9756 22.6949 11.6236C22.3589 11.2876 22.1989 10.8396 22.1989 10.2956V5.41561H24.9189V4.91961H22.1989V2.95161H21.8149L21.0469 3.59161V4.91961H19.4309ZM29.3093 12.5996H29.9973L32.2373 6.90361L34.4613 12.5996H35.1653L38.1733 4.91961H37.5333L35.0853 11.2076L32.6533 4.91961H31.4693L31.9173 6.08761L29.9333 11.2076L27.4693 4.91961H26.2853L29.3093 12.5996ZM39.4154 8.75961C39.4154 9.94361 39.7674 10.9036 40.4714 11.6236C41.1754 12.3436 42.1194 12.6956 43.3034 12.6956C44.4714 12.6956 45.4154 12.3436 46.1194 11.6236C46.8234 10.9036 47.1914 9.94361 47.1914 8.75961C47.1914 7.57561 46.8234 6.63161 46.1194 5.91161C45.4154 5.19161 44.4714 4.82361 43.3034 4.82361C42.1194 4.82361 41.1754 5.19161 40.4714 5.91161C39.7674 6.63161 39.4154 7.57561 39.4154 8.75961ZM40.5994 8.75961C40.5994 7.71961 40.8394 6.87161 41.3354 6.23161C41.8314 5.59161 42.4874 5.27161 43.3034 5.27161C44.1034 5.27161 44.7594 5.59161 45.2554 6.23161C45.7514 6.87161 46.0074 7.71961 46.0074 8.75961C46.0074 9.81561 45.7514 10.6476 45.2554 11.2876C44.7594 11.9276 44.1034 12.2476 43.3034 12.2476C42.4874 12.2476 41.8314 11.9276 41.3354 11.2876C40.8394 10.6476 40.5994 9.81561 40.5994 8.75961ZM49.5824 12.5996H50.7504V8.21561C50.7504 7.47961 50.9904 6.88761 51.5024 6.42361C51.9984 5.95961 52.5904 5.71961 53.2944 5.71961C53.4864 5.71961 53.6624 5.75161 53.8064 5.81561V4.82361C53.1024 4.82361 52.4624 4.98361 51.9184 5.30361C51.3744 5.62361 50.9584 6.05561 50.6864 6.59961L50.3664 5.07961C50.2864 4.98361 50.1904 4.91961 50.0784 4.91961H49.5824V12.5996ZM57.0911 12.5996V9.89561L58.3711 8.63161L61.1871 12.5996H62.4991L59.1391 7.84761L62.0831 4.91961H61.2511L57.0911 9.06361V0.599608H55.9231V12.5996H57.0911Z" fill="white"/>
</svg>
