<svg width="70" height="12" viewBox="0 0 70 12" fill="none" xmlns="http://www.w3.org/2000/svg">
<path d="M0.938621 11.5996L2.47462 8.27161H8.45862L9.99462 11.5996H11.2586L6.10662 0.399609H5.40262L0.234621 11.5996H0.938621ZM2.69862 7.77561L5.45062 1.80761L8.21862 7.77561H2.69862ZM12.988 3.91961V8.78361C12.988 9.69561 13.276 10.4156 13.884 10.9276C14.492 11.4396 15.292 11.6956 16.284 11.6956C17.628 11.6956 18.62 11.2476 19.26 10.3356L19.5 11.4396C19.564 11.5516 19.66 11.5996 19.788 11.5996H20.284V3.91961H19.116V8.52761C19.116 9.35961 18.876 10.0156 18.428 10.5116C17.98 11.0076 17.372 11.2476 16.604 11.2476C15.868 11.2476 15.276 11.0236 14.828 10.5436C14.38 10.0636 14.156 9.42361 14.156 8.60761V3.91961H12.988ZM26.6101 3.82361C25.3941 3.82361 24.4341 4.19161 23.7301 4.89561C23.0261 5.61561 22.6741 6.57561 22.6741 7.75961C22.6741 8.95961 23.0261 9.91961 23.7301 10.6236C24.4341 11.3436 25.3941 11.6956 26.6101 11.6956C27.6181 11.6956 28.4501 11.4556 29.1061 10.9596C29.7461 10.4636 30.0821 9.82361 30.0821 9.05561H28.9461C28.9461 9.69561 28.7221 10.2076 28.2901 10.6236C27.8421 11.0396 27.2821 11.2476 26.5941 11.2476C25.7621 11.2476 25.0901 10.9436 24.5941 10.3036C24.0981 9.66361 23.8581 8.81561 23.8581 7.75961C23.8581 6.70361 24.0981 5.87161 24.5941 5.23161C25.0901 4.59161 25.7621 4.27161 26.5941 4.27161C27.2821 4.27161 27.8421 4.47961 28.2901 4.89561C28.7221 5.31161 28.9461 5.83961 28.9461 6.44761H30.0821C30.0821 5.69561 29.7461 5.07161 29.1061 4.57561C28.4501 4.07961 27.6181 3.82361 26.6101 3.82361ZM31.4302 3.91961V4.41561H33.0462V9.37561C33.0462 10.0636 33.2862 10.6236 33.7662 11.0556C34.2462 11.4876 34.8542 11.6956 35.5902 11.6956C35.9422 11.6956 36.2622 11.6476 36.5502 11.5356C36.8382 11.4236 37.0142 11.3276 37.0942 11.2636C37.1742 11.1996 37.2382 11.1356 37.2702 11.0876L36.9982 10.7516L36.8862 10.8476C36.8222 10.9116 36.6942 10.9756 36.5182 11.0396C36.3262 11.1036 36.1342 11.1356 35.9262 11.1356C35.4302 11.1356 35.0142 10.9756 34.6942 10.6236C34.3582 10.2876 34.1982 9.83961 34.1982 9.29561V4.41561H36.9182V3.91961H34.1982V1.95161H33.8142L33.0462 2.59161V3.91961H31.4302ZM39.4317 11.5996H40.5997V3.91961H39.4317V11.5996ZM39.2237 1.24761C39.2237 1.48761 39.2877 1.67961 39.4317 1.82361C39.5757 1.96761 39.7677 2.03161 40.0237 2.03161C40.2477 2.03161 40.4397 1.96761 40.5837 1.82361C40.7277 1.67961 40.8077 1.48761 40.8077 1.24761C40.8077 1.02361 40.7277 0.831609 40.5837 0.671609C40.4397 0.527609 40.2477 0.447609 40.0237 0.447609C39.7837 0.447609 39.5917 0.527609 39.4477 0.671609C39.2877 0.815609 39.2237 1.00761 39.2237 1.24761ZM42.9929 7.75961C42.9929 8.94361 43.3449 9.90361 44.0489 10.6236C44.7529 11.3436 45.6969 11.6956 46.8809 11.6956C48.0489 11.6956 48.9929 11.3436 49.6969 10.6236C50.4009 9.90361 50.7689 8.94361 50.7689 7.75961C50.7689 6.57561 50.4009 5.63161 49.6969 4.91161C48.9929 4.19161 48.0489 3.82361 46.8809 3.82361C45.6969 3.82361 44.7529 4.19161 44.0489 4.91161C43.3449 5.63161 42.9929 6.57561 42.9929 7.75961ZM44.1769 7.75961C44.1769 6.71961 44.4169 5.87161 44.9129 5.23161C45.4089 4.59161 46.0649 4.27161 46.8809 4.27161C47.6809 4.27161 48.3369 4.59161 48.8329 5.23161C49.3289 5.87161 49.5849 6.71961 49.5849 7.75961C49.5849 8.81561 49.3289 9.64761 48.8329 10.2876C48.3369 10.9276 47.6809 11.2476 46.8809 11.2476C46.0649 11.2476 45.4089 10.9276 44.9129 10.2876C44.4169 9.64761 44.1769 8.81561 44.1769 7.75961ZM54.3279 11.5996V7.07161C54.3279 6.23961 54.5519 5.55161 54.9999 5.03961C55.4479 4.52761 56.0559 4.27161 56.8079 4.27161C57.5439 4.27161 58.1519 4.52761 58.5999 5.03961C59.0479 5.55161 59.2879 6.23961 59.2879 7.07161V11.5996H60.4559V6.89561C60.4559 5.96761 60.1519 5.23161 59.5439 4.67161C58.9359 4.11161 58.1199 3.82361 57.1119 3.82361C55.7679 3.82361 54.7919 4.28761 54.1679 5.18361L53.9439 4.07961C53.8639 3.98361 53.7679 3.91961 53.6559 3.91961H53.1599V11.5996H54.3279ZM68.4162 9.80761C68.4162 10.2556 68.2082 10.6076 67.8082 10.8636C67.3922 11.1196 66.8642 11.2476 66.2082 11.2476C65.4882 11.2476 64.9122 11.0876 64.4962 10.7676C64.0802 10.4476 63.8722 10.0156 63.8722 9.47161H62.7522C62.7522 10.1436 63.0562 10.6876 63.6802 11.0876C64.2882 11.5036 65.1202 11.6956 66.1602 11.6956C67.1682 11.6956 67.9682 11.5036 68.5762 11.1196C69.1842 10.7356 69.4882 10.2076 69.4882 9.53561C69.4882 8.92761 69.2002 8.44761 68.6242 8.07961C68.3042 7.88761 67.6482 7.61561 66.6562 7.29561C66.5602 7.27961 66.4482 7.24761 66.2882 7.18361C65.9362 7.08761 65.6962 7.00761 65.5362 6.95961C65.3762 6.91161 65.1842 6.83161 64.9442 6.71961C64.6882 6.62361 64.5122 6.52761 64.4162 6.43161C64.3042 6.33561 64.2082 6.22361 64.1282 6.07961C64.0322 5.93561 64.0002 5.77561 64.0002 5.59961C64.0002 5.21561 64.1762 4.89561 64.5442 4.63961C64.8962 4.39961 65.3762 4.27161 65.9842 4.27161C66.6402 4.27161 67.1682 4.44761 67.5682 4.76761C67.9522 5.08761 68.1602 5.51961 68.1602 6.03161H69.2802C69.2802 5.35961 68.9762 4.83161 68.4002 4.43161C67.8082 4.03161 67.0242 3.82361 66.0322 3.82361C65.0882 3.82361 64.3362 4.01561 63.7602 4.38361C63.1842 4.75161 62.9122 5.24761 62.9122 5.85561C62.9122 6.47961 63.2322 6.97561 63.9042 7.34361C64.2242 7.53561 64.9442 7.79161 66.0642 8.14361C66.0962 8.15961 66.1762 8.17561 66.2722 8.20761C66.5922 8.30361 66.8002 8.38361 66.9282 8.41561C67.0562 8.44761 67.2322 8.52761 67.4882 8.62361C67.7282 8.73561 67.9042 8.83161 68.0002 8.92761C68.0962 9.02361 68.1762 9.15161 68.2722 9.31161C68.3682 9.47161 68.4162 9.63161 68.4162 9.80761Z" fill="white"/>
</svg>
